name C:\Users\u0150099\Documents\master_thesis\3dpredictsim\Results\debug\Fal_s1_mtj_sc_cspx10_oy_MTPm_k1_d01_MTJm_nl_MG_exp_table_d01_PF_Gefen2002_ls146_PIM_w1e+03_w1e+05_ig21.mot
datacolumns 128
datarows 4
range 1.05896278 1.09073166
endheader
time	pelvis_tilt	pelvis_list	pelvis_rotation	pelvis_tx	pelvis_ty	pelvis_tz	hip_flexion_l	hip_adduction_l	hip_rotation_l	hip_flexion_r	hip_adduction_r	hip_rotation_r	knee_angle_l	knee_angle_r	ankle_angle_l	ankle_angle_r	subtalar_angle_l	subtalar_angle_r	mtj_angle_l	mtj_angle_r	mtp_angle_l	mtp_angle_r	lumbar_extension	lumbar_bending	lumbar_rotation	arm_flex_l	arm_add_l	arm_rot_l	arm_flex_r	arm_add_r	arm_rot_r	elbow_flex_l	elbow_flex_r	pro_sup_l	pro_sup_r	glut_med1_l/activation	glut_med2_l/activation	glut_med3_l/activation	glut_min1_l/activation	glut_min2_l/activation	glut_min3_l/activation	semimem_l/activation	semiten_l/activation	bifemlh_l/activation	bifemsh_l/activation	sar_l/activation	add_long_l/activation	add_brev_l/activation	add_mag1_l/activation	add_mag2_l/activation	add_mag3_l/activation	tfl_l/activation	pect_l/activation	grac_l/activation	glut_max1_l/activation	glut_max2_l/activation	glut_max3_l/activation	iliacus_l/activation	psoas_l/activation	quad_fem_l/activation	gem_l/activation	peri_l/activation	rect_fem_l/activation	vas_med_l/activation	vas_int_l/activation	vas_lat_l/activation	med_gas_l/activation	lat_gas_l/activation	soleus_l/activation	tib_post_l/activation	flex_dig_l/activation	flex_hal_l/activation	tib_ant_l/activation	per_brev_l/activation	per_long_l/activation	per_tert_l/activation	ext_dig_l/activation	ext_hal_l/activation	ercspn_l/activation	intobl_l/activation	extobl_l/activation	glut_med1_r/activation	glut_med2_r/activation	glut_med3_r/activation	glut_min1_r/activation	glut_min2_r/activation	glut_min3_r/activation	semimem_r/activation	semiten_r/activation	bifemlh_r/activation	bifemsh_r/activation	sar_r/activation	add_long_r/activation	add_brev_r/activation	add_mag1_r/activation	add_mag2_r/activation	add_mag3_r/activation	tfl_r/activation	pect_r/activation	grac_r/activation	glut_max1_r/activation	glut_max2_r/activation	glut_max3_r/activation	iliacus_r/activation	psoas_r/activation	quad_fem_r/activation	gem_r/activation	peri_r/activation	rect_fem_r/activation	vas_med_r/activation	vas_int_r/activation	vas_lat_r/activation	med_gas_r/activation	lat_gas_r/activation	soleus_r/activation	tib_post_r/activation	flex_dig_r/activation	flex_hal_r/activation	tib_ant_r/activation	per_brev_r/activation	per_long_r/activation	per_tert_r/activation	ext_dig_r/activation	ext_hal_r/activation	ercspn_r/activation	intobl_r/activation	extobl_r/activation	
          1.05896278	         -2.92988647	         -1.01511808	          3.76915559	          1.40842049	          0.91393502	         -0.00356474	        -15.99168105	          1.76551053	          9.50475855	         27.21622387	          2.88631424	         -0.72294498	        -10.41457365	         -7.47828489	          9.69811319	         13.51250528	          9.16337881	         -0.85067389	         -5.93124715	        -12.22049670	         15.39942553	        -10.73514259	         -2.74240118	          0.15439746	         -1.62319058	          3.93524464	        -13.73610673	         19.37134664	         -7.37879238	        -13.50351398	          4.95893885	         32.00674121	         25.69651177	         86.51662706	         86.51662706	          0.35753502	          0.11266435	          0.06925416	          0.39884605	          0.24944495	          0.11382012	          0.05000081	          0.05000010	          0.05000007	          0.06779508	          0.09581270	          0.05000005	          0.05000004	          0.05000011	          0.05000039	          0.05000030	          0.49897527	          0.05000028	          0.05000015	          0.05000109	          0.05000054	          0.05000031	          0.27765860	          0.76592223	          0.05000004	          0.05000017	          0.05000011	          0.24525466	          0.05000036	          0.05000037	          0.05000038	          0.26897342	          0.33556222	          0.37067756	          0.29469814	          0.13677771	          0.27898318	          0.05000000	          0.05882469	          0.10729219	          0.05000002	          0.05000000	          0.07226792	          0.05000000	          0.05000000	          0.05000002	          0.06502825	          0.05000025	          0.05882465	          0.05000006	          0.05000010	          0.05000122	          0.29309469	          0.09176964	          0.15881626	          0.06905073	          0.05000018	          0.12042546	          0.16952675	          0.14855053	          0.16191410	          0.15135078	          0.05000048	          0.05010670	          0.17922286	          0.05882479	          0.05882492	          0.12040157	          0.05000003	          0.05000003	          0.20783924	          0.05000037	          0.05000015	          0.05000003	          0.05000087	          0.05000086	          0.05000087	          0.05411610	          0.05000086	          0.05000037	          0.06920685	          0.07774323	          0.09455251	          0.30068089	          0.10598102	          0.17552350	          0.18697000	          0.53924382	          0.06409834	          0.05675191	          0.08309969	          0.08541673	
          1.06955241	         -2.92691524	         -1.08662924	          3.97487988	          1.42532177	          0.91400379	         -0.00329502	        -15.93418813	          1.53566322	          9.50755162	         26.74224388	          3.30179709	         -0.68245959	        -12.12492148	         -7.88136577	          8.77157311	         13.12436264	         10.07668196	         -0.88927716	         -7.17441303	        -12.56213823	         18.83448622	        -11.51923944	         -2.54650232	          0.31496150	         -1.71414142	          3.54309028	        -13.67395418	         19.25478661	         -8.11716932	        -13.46152353	          4.67348829	         33.00619723	         25.31488127	         86.51662706	         86.51662706	          0.30389881	          0.09576282	          0.05886489	          0.33901249	          0.21202405	          0.09674521	          0.05000088	          0.05000009	          0.05000006	          0.05762471	          0.08143922	          0.07372904	          0.05185099	          0.05000046	          0.05000085	          0.05000027	          0.46458388	          0.05882525	          0.05000041	          0.05000033	          0.05000020	          0.05000020	          0.23600516	          0.65102168	          0.05000003	          0.05000017	          0.05519147	          0.20846242	          0.06800460	          0.08043524	          0.08090277	          0.22862290	          0.28522227	          0.31506971	          0.25048849	          0.11625882	          0.23713106	          0.05000000	          0.05000003	          0.09119657	          0.05000007	          0.05000002	          0.06142654	          0.05171756	          0.07595802	          0.05641224	          0.05527295	          0.05000134	          0.05000005	          0.05882469	          0.05882466	          0.05000034	          0.24912559	          0.07800270	          0.13499119	          0.05882477	          0.05139916	          0.13449733	          0.14409520	          0.12626570	          0.23232350	          0.15847816	          0.05000005	          0.05947691	          0.19703123	          0.05000016	          0.05000022	          0.13286881	          0.07589956	          0.06920695	          0.53565513	          0.19283481	          0.08852497	          0.05000002	          0.05000004	          0.05000004	          0.05000003	          0.05000000	          0.05000002	          0.05000000	          0.05882468	          0.08142123	          0.08142133	          0.29339839	          0.24474056	          0.17643357	          0.15892152	          0.58326787	          0.05882492	          0.05000001	          0.07063334	          0.07260280	
          1.08014203	         -2.92063503	         -1.18170614	          4.16166482	          1.44243262	          0.91401880	         -0.00301950	        -15.77908810	          1.28826913	          9.47882123	         26.28428831	          3.65969543	         -0.62936568	        -13.95354531	         -8.75769867	          7.59216370	         12.36289913	         11.02248167	         -0.94531276	         -8.38819266	        -12.86385921	         22.40143394	        -12.19491015	         -2.33960806	          0.50067563	         -1.79341290	          3.07022637	        -13.61782147	         19.06846735	         -8.84782334	        -13.44994566	          4.60172469	         34.08281574	         24.89722103	         86.51662706	         86.51662706	          0.25830891	          0.08139680	          0.05882467	          0.28815496	          0.18021691	          0.08223182	          0.05000050	          0.05000009	          0.05000049	          0.05000001	          0.06922200	          0.13006051	          0.29216095	          0.18136686	          0.05956363	          0.14302460	          0.39488866	          0.05000068	          0.05000031	          0.05882469	          0.05882474	          0.05882488	          0.20060044	          0.63515995	          0.05882469	          0.05882466	          0.05000010	          0.17718957	          0.13258926	          0.13258924	          0.13258899	          0.19432563	          0.24243415	          0.26780397	          0.21291102	          0.09881806	          0.20155744	          0.17892575	          0.05000007	          0.07751556	          0.05000001	          0.20546555	          0.05221155	          0.08082210	          0.06740512	          0.06920688	          0.05000000	          0.05000001	          0.14751708	          0.05000002	          0.05000002	          0.05000003	          0.21175258	          0.06630101	          0.11474026	          0.05000008	          0.05000021	          0.11432052	          0.37497174	          0.36875133	          0.27128529	          0.20641189	          0.05000015	          0.07088400	          0.16747370	          0.05010047	          0.16113343	          0.21058047	          0.06451339	          0.05882480	          0.52314708	          0.16390639	          0.07524485	          0.05882470	          0.07823550	          0.09987143	          0.05887145	          0.06920688	          0.06920714	          0.06920687	          0.05000000	          0.06920685	          0.06920684	          0.34918767	          0.20802564	          0.14996559	          0.17869634	          0.64284285	          0.05000021	          0.05000000	          0.06003716	          0.06171116	
          1.09073166	         -2.91123868	         -1.31861687	          4.32526612	          1.45965967	          0.91393402	         -0.00275782	        -15.51643804	          1.01794674	          9.43035763	         25.77313401	          3.93076950	         -0.52802144	        -15.92306100	         -9.68211384	          6.27481659	         11.46732169	         11.97234513	         -0.95887796	         -9.60579544	        -13.18493417	         25.92130182	        -12.73753876	         -2.12474976	          0.73043506	         -1.86111360	          2.52877643	        -13.56947045	         18.84369930	         -9.54936057	        -13.47596903	          4.73038521	         35.23995948	         24.43260446	         86.51662706	         86.51662706	          0.21955833	          0.06918592	          0.05000000	          0.24492697	          0.15318137	          0.06989568	          0.06837053	          0.05422766	          0.05000020	          0.05102674	          0.05883759	          0.15535562	          0.34316646	          0.15415887	          0.05062846	          0.12156858	          0.47632949	          0.05882490	          0.05000046	          0.05000031	          0.05000018	          0.05000025	          0.17050702	          0.61394979	          0.05000002	          0.05000008	          0.05000001	          0.15060817	          0.11269865	          0.11269864	          0.11269843	          0.16517353	          0.20606499	          0.22762888	          0.18097080	          0.08399370	          0.17132045	          0.37779022	          0.26075698	          0.06588693	          0.11974426	          0.33209254	          0.44442993	          0.10050600	          0.05729322	          0.05882469	          0.39183035	          0.36584734	          0.38839914	          0.37711082	          0.29334040	          0.29168485	          0.17998616	          0.13655960	          0.11937342	          0.06920701	          0.05882445	          0.09717054	          0.31871971	          0.31343251	          0.23058812	          0.24802100	          0.05000010	          0.06025033	          0.14711748	          0.26668171	          0.24358886	          0.24569239	          0.05483538	          0.05000019	          0.44466626	          0.13931773	          0.11427777	          0.05000002	          0.06649888	          0.08488906	          0.05003976	          0.05882469	          0.05882491	          0.05882468	          0.07303107	          0.05882469	          0.05882472	          0.49132819	          0.17681832	          0.14357897	          0.38098250	          0.75201285	          0.44313384	          0.07500081	          0.06920689	          0.05245346	
